<svg width="187" height="100" viewBox="0 0 187 100" fill="none" xmlns="http://www.w3.org/2000/svg">
<g clip-path="url(#clip0)">
<path d="M1.69772 32.3274H32.1888V1.70503H1.69772V32.3274ZM33.8865 34.0324H0V0H33.8865V34.0324Z" fill="white"/>
<path d="M185.731 58.7212H116.667H1.69772V40.8525H185.731V58.7212ZM114.97 78.295H1.69772V60.4263H114.97V78.295ZM40.5416 1.70503H99.6224V20.4604H40.5416V1.70503V1.70503ZM104.716 30.0085L106.889 26.1211H109.198L106.549 30.6905L109.401 35.6692H106.889L104.783 31.85H103.425V35.6692H101.252V31.85H99.8261L97.7209 35.6692H95.0725L97.9246 30.6905L95.2762 26.1211H97.5851L99.6903 30.0085H101.116V26.1211H103.289V30.0085H104.716ZM114.155 26.1211H116.328L120.606 35.6692H118.297L117.482 33.6232H113.068L112.253 35.6692H110.012L114.155 26.1211ZM121.693 26.1211H123.866V29.8721H125.156C125.292 29.1219 125.631 28.4399 126.039 27.8261C126.514 27.2123 127.058 26.8031 127.805 26.4621C128.484 26.1211 129.299 25.9847 130.113 25.9847C131.064 25.9847 131.947 26.1893 132.694 26.5985C133.441 27.0077 134.052 27.6215 134.528 28.3717C134.935 29.1219 135.207 29.9403 135.207 30.8951C135.207 31.85 135.003 32.6684 134.528 33.4186C134.12 34.1688 133.509 34.7826 132.694 35.1918C131.947 35.601 131.064 35.8056 130.113 35.8056C129.231 35.8056 128.484 35.6692 127.805 35.26C127.125 34.919 126.514 34.4416 126.039 33.8278C125.564 33.214 125.292 32.532 125.156 31.7136H123.934V35.601H121.761V26.1211H121.693ZM136.497 26.1211H138.67V33.896H141.658V26.1211H143.831V33.896H146.751H146.819V26.1211H148.992V33.896H150.282V37.6471H148.245V35.6692H146.751H136.497V26.1211ZM151.573 26.1211H158.771V27.8943H153.746V29.9403H158.16V31.6454H153.746V33.8278H158.907V35.601H151.573V26.1211V26.1211ZM160.537 26.1211H162.71V32.3274L167.26 26.1211H169.297V35.6692H167.124V29.4629L162.574 35.6692H160.469V26.1211H160.537ZM163.796 23.4612C163.796 24.1432 164.204 24.4842 164.951 24.4842C165.29 24.4842 165.562 24.416 165.766 24.2114C165.969 24.075 166.037 23.8022 166.037 23.4612H167.531C167.531 24.1432 167.328 24.6888 166.852 25.0298C166.445 25.3708 165.766 25.5754 164.883 25.5754C163.117 25.5754 162.234 24.8934 162.234 23.4612H163.796V23.4612ZM93.5106 30.0085V31.7136H89.0965V33.896H94.2576V35.6692H86.9234V26.1211H94.1217V27.8943H89.0965V29.9403H93.5106V30.0085ZM77.4161 35.6692V26.1211H81.5586C82.3735 26.1211 83.1205 26.2575 83.7317 26.5303C84.3429 26.8031 84.8182 27.2123 85.1578 27.7579C85.4973 28.3035 85.6331 28.9173 85.6331 29.5993C85.6331 30.2813 85.4973 30.8951 85.1578 31.4407C84.8182 31.9864 84.3429 32.3956 83.7317 32.6684C83.1205 32.9412 82.3735 33.0776 81.5586 33.0776H79.6571V35.7374H77.4161V35.6692ZM75.1072 30.0085V31.7136H70.6932V33.896H75.8542V35.6692H68.5201V26.1211H75.7184V27.8943H70.6932V29.9403H75.1072V30.0085ZM59.9636 27.9625V35.7374H57.7905V26.1893H66.4828V35.7374H64.3097V27.9625H59.9636ZM45.9743 30.8951C45.9743 29.9403 46.1781 29.1219 46.6534 28.3717C47.1288 27.6215 47.74 27.0077 48.487 26.5985C49.3019 26.1893 50.1847 25.9847 51.1354 25.9847C52.154 25.9847 53.0368 26.1893 53.7838 26.5985C54.5988 27.0077 55.2099 27.6215 55.6174 28.3717C56.0928 29.1219 56.2965 29.9403 56.2965 30.8951C56.2965 31.85 56.0928 32.6684 55.6174 33.4186C55.142 34.1688 54.5308 34.7826 53.7838 35.1918C52.9689 35.601 52.0861 35.8056 51.1354 35.8056C50.1168 35.8056 49.234 35.601 48.487 35.1918C47.672 34.7826 47.0609 34.1688 46.6534 33.4186C46.1781 32.7366 45.9743 31.85 45.9743 30.8951ZM187.429 39.1475H176.224V20.3922H101.32V0H38.8439L38.9118 21.2788V39.1475H0V58.7212V60.4263V80H116.667V60.4263H187.429V39.1475Z" fill="white"/>
<path d="M82.9168 30.8273C83.2564 30.5545 83.4601 30.1453 83.4601 29.5997C83.4601 29.0541 83.2564 28.6449 82.9168 28.3721C82.5773 28.0993 82.1019 27.9629 81.4229 27.9629H79.6572V31.3047H81.4229C82.1019 31.2365 82.5773 31.1001 82.9168 30.8273Z" fill="white"/>
<path d="M115.24 28.3047L113.746 31.9876H116.734L115.24 28.3047Z" fill="white"/>
<path d="M49.6424 33.6234C50.1178 33.8962 50.5932 34.0326 51.1364 34.0326C51.6797 34.0326 52.223 33.8962 52.6304 33.6234C53.1058 33.3506 53.4453 33.0096 53.717 32.5322C53.9886 32.0548 54.1244 31.5092 54.1244 30.9636C54.1244 30.3498 53.9886 29.8724 53.717 29.395C53.4453 28.9175 53.1058 28.5765 52.6304 28.3037C52.1551 28.0309 51.6797 27.8945 51.1364 27.8945C50.5932 27.8945 50.0499 28.0309 49.6424 28.3037C49.1671 28.5765 48.8275 28.9175 48.5559 29.395C48.2843 29.8724 48.1484 30.418 48.1484 30.9636C48.1484 31.5774 48.2843 32.0548 48.5559 32.5322C48.8275 32.9414 49.1671 33.3506 49.6424 33.6234Z" fill="white"/>
<path d="M128.619 33.6234C129.027 33.8962 129.502 34.0326 130.045 34.0326C130.589 34.0326 131.064 33.8962 131.472 33.6234C131.879 33.3506 132.219 33.0096 132.49 32.5322C132.762 32.0548 132.83 31.5092 132.83 30.9636C132.83 30.418 132.694 29.8042 132.49 29.395C132.286 28.9857 131.879 28.5765 131.472 28.3037C131.064 28.0309 130.589 27.8945 130.045 27.8945C129.502 27.8945 129.027 28.0309 128.619 28.3037C128.212 28.5765 127.872 28.9175 127.601 29.395C127.329 29.8724 127.261 30.418 127.261 30.9636C127.261 31.5092 127.397 32.123 127.601 32.5322C127.872 33.0096 128.212 33.3506 128.619 33.6234Z" fill="white"/>
<path d="M16.5019 45.4219V54.97H14.3288V47.1951H9.98266V54.97H7.80957V45.4219H16.5019Z" fill="white"/>
<path d="M24.3116 50.0595C24.6512 49.7867 24.8549 49.3775 24.8549 48.8319C24.8549 48.2863 24.6512 47.8771 24.3116 47.6043C23.9721 47.3315 23.4967 47.1951 22.8176 47.1951H21.052V50.5369H22.8176C23.4288 50.5369 23.9721 50.4005 24.3116 50.0595ZM25.1265 45.831C25.7377 46.1038 26.2131 46.5131 26.5526 47.0587C26.8922 47.6043 27.028 48.2181 27.028 48.9001C27.028 49.5821 26.8922 50.1959 26.5526 50.7415C26.2131 51.2871 25.7377 51.6963 25.1265 51.9692C24.5153 52.242 23.7683 52.3784 22.9534 52.3784H21.052V55.0382H18.8789V45.49H23.0214C23.7684 45.4218 24.5153 45.5582 25.1265 45.831Z" fill="white"/>
<path d="M34.9066 52.8555C35.3819 52.5827 35.7215 52.2417 35.9931 51.7643C36.2648 51.2869 36.4006 50.7412 36.4006 50.1956C36.4006 49.65 36.2648 49.1044 35.9931 48.627C35.7215 48.1496 35.3819 47.8086 34.9066 47.5358C34.4312 47.263 33.9558 47.1266 33.4126 47.1266C32.8693 47.1266 32.326 47.263 31.9186 47.5358C31.4432 47.8086 31.1037 48.1496 30.832 48.627C30.5604 49.1044 30.4246 49.65 30.4246 50.1956C30.4246 50.7412 30.5604 51.2869 30.832 51.7643C31.1037 52.2417 31.4432 52.5827 31.9186 52.8555C32.3939 53.1283 32.8693 53.2647 33.4126 53.2647C33.9558 53.2647 34.4312 53.1283 34.9066 52.8555ZM30.6962 54.4923C29.8813 54.0831 29.2701 53.4693 28.8627 52.7191C28.3873 51.9689 28.1836 51.1505 28.1836 50.1956C28.1836 49.2408 28.3873 48.4224 28.8627 47.6722C29.338 46.922 29.9492 46.3082 30.6962 45.899C31.5111 45.4898 32.3939 45.2852 33.3447 45.2852C34.3633 45.2852 35.2461 45.4898 35.9931 45.899C36.808 46.3082 37.4192 46.922 37.8267 47.6722C38.302 48.4224 38.5057 49.2408 38.5057 50.1956C38.5057 51.1505 38.302 51.9689 37.8267 52.7191C37.3513 53.4693 36.7401 54.0831 35.9931 54.4923C35.1782 54.9015 34.2954 55.1061 33.3447 55.1061C32.3939 55.1061 31.5111 54.9015 30.6962 54.4923Z" fill="white"/>
<path d="M48.9622 51.8338C49.4375 51.4246 49.6413 50.879 49.6413 50.1288C49.6413 48.6965 48.6905 47.8781 46.7891 47.6735V52.584C47.7398 52.5158 48.4868 52.243 48.9622 51.8338ZM44.7518 52.584V47.7417C43.8011 47.8099 43.0541 48.0827 42.5787 48.4919C42.1034 48.9011 41.8996 49.4468 41.8996 50.197C41.8996 51.561 42.8504 52.3794 44.7518 52.584ZM50.4562 53.1296C49.5734 53.8798 48.351 54.289 46.7891 54.3572V55.3803H44.7518V54.3572C43.122 54.289 41.8996 53.8798 41.0168 53.1296C40.134 52.3794 39.7266 51.4246 39.7266 50.197C39.7266 48.9693 40.134 47.9463 41.0168 47.2643C41.8996 46.5823 43.122 46.1731 44.7518 46.0367V45.0137H46.7891V45.9685C48.4189 46.0367 49.6413 46.4459 50.4562 47.1961C51.339 47.9463 51.7464 48.9011 51.7464 50.1288C51.7464 51.4246 51.339 52.3794 50.4562 53.1296Z" fill="white"/>
<path d="M60.7092 53.1968V54.97H53.375V45.4219H60.5054V47.1951H55.5481V49.2411H59.9622V50.9462H55.5481V53.1968H60.7092Z" fill="white"/>
<path d="M64.2431 54.4923C63.4282 54.0831 62.817 53.4693 62.4096 52.7191C61.9342 51.9689 61.7305 51.1505 61.7305 50.1956C61.7305 49.2408 61.9342 48.4224 62.4096 47.6722C62.8849 46.922 63.4961 46.3082 64.2431 45.899C65.058 45.4898 65.8729 45.2852 66.8915 45.2852C67.7064 45.2852 68.4534 45.4216 69.1325 45.6944C69.8116 45.9672 70.3549 46.3764 70.8303 46.922L69.4042 48.2178C68.793 47.4676 67.9781 47.1266 67.0274 47.1266C66.4162 47.1266 65.9408 47.263 65.4655 47.5358C64.9901 47.8086 64.6506 48.1496 64.3789 48.627C64.1073 49.1044 63.9715 49.65 63.9715 50.1956C63.9715 50.7412 64.1073 51.2869 64.3789 51.7643C64.6506 52.2417 64.9901 52.5827 65.4655 52.8555C65.9408 53.1283 66.4841 53.2647 67.0274 53.2647C67.9781 53.2647 68.793 52.8555 69.4042 52.1053L70.8303 53.4011C70.3549 53.9467 69.8116 54.3559 69.1325 54.6969C68.4534 54.9697 67.7064 55.1061 66.8915 55.1061C65.9408 55.1061 65.058 54.9015 64.2431 54.4923Z" fill="white"/>
<path d="M73.954 54.4923C73.1391 54.0831 72.5279 53.4693 72.1205 52.7191C71.6451 51.9689 71.4414 51.1505 71.4414 50.1956C71.4414 49.2408 71.6451 48.4224 72.1205 47.6722C72.5959 46.922 73.207 46.3082 73.954 45.899C74.7689 45.4898 75.5839 45.2852 76.6025 45.2852C77.4174 45.2852 78.1644 45.4216 78.8435 45.6944C79.5226 45.9672 80.0658 46.3764 80.5412 46.922L79.1151 48.2178C78.5039 47.4676 77.689 47.1266 76.7383 47.1266C76.1271 47.1266 75.6518 47.263 75.1764 47.5358C74.701 47.8086 74.3615 48.1496 74.0899 48.627C73.8182 49.1044 73.6824 49.65 73.6824 50.1956C73.6824 50.7412 73.8182 51.2869 74.0899 51.7643C74.3615 52.2417 74.701 52.5827 75.1764 52.8555C75.6518 53.1283 76.195 53.2647 76.7383 53.2647C77.689 53.2647 78.5039 52.8555 79.1151 52.1053L80.5412 53.4011C80.0658 53.9467 79.5226 54.3559 78.8435 54.6969C78.1644 54.9697 77.4174 55.1061 76.6025 55.1061C75.5839 55.1061 74.701 54.9015 73.954 54.4923Z" fill="white"/>
<path d="M81.8979 45.4219H84.071V51.6282L88.6209 45.4219H90.7261V54.97H88.553V48.7637L84.0031 54.97H81.8979V45.4219Z" fill="white"/>
<path d="M99.1488 52.8555C99.6241 52.5827 99.9637 52.2417 100.235 51.7643C100.507 51.2869 100.643 50.7412 100.643 50.1956C100.643 49.65 100.507 49.1044 100.235 48.627C99.9637 48.1496 99.6241 47.8086 99.1488 47.5358C98.6734 47.263 98.198 47.1266 97.6548 47.1266C97.1115 47.1266 96.5682 47.263 96.1608 47.5358C95.6854 47.8086 95.3459 48.1496 95.0742 48.627C94.8026 49.1044 94.6668 49.65 94.6668 50.1956C94.6668 50.7412 94.8026 51.2869 95.0742 51.7643C95.3459 52.2417 95.6854 52.5827 96.1608 52.8555C96.6361 53.1283 97.1115 53.2647 97.6548 53.2647C98.198 53.2647 98.6734 53.1283 99.1488 52.8555ZM94.9384 54.4923C94.1235 54.0831 93.5123 53.4693 93.1049 52.7191C92.6295 51.9689 92.4258 51.1505 92.4258 50.1956C92.4258 49.2408 92.6295 48.4224 93.1049 47.6722C93.5802 46.922 94.1914 46.3082 94.9384 45.899C95.7533 45.4898 96.6361 45.2852 97.5869 45.2852C98.6055 45.2852 99.4883 45.4898 100.235 45.899C101.05 46.3082 101.661 46.922 102.069 47.6722C102.544 48.4224 102.748 49.2408 102.748 50.1956C102.748 51.1505 102.544 51.9689 102.069 52.7191C101.593 53.4693 100.982 54.0831 100.235 54.4923C99.4204 54.9015 98.5376 55.1061 97.5869 55.1061C96.6361 55.1061 95.7533 54.9015 94.9384 54.4923Z" fill="white"/>
<path d="M113.204 45.4219V54.97H111.031V51.0144H106.685V54.97H104.512V45.4219H106.685V49.1729H111.031V45.4219H113.204Z" fill="white"/>
<path d="M121.42 51.219L119.926 47.5361L118.432 51.219H121.42ZM122.099 52.924H117.685L116.87 54.97H114.629L118.839 45.4219H121.012L125.291 54.97H122.914L122.099 52.924Z" fill="white"/>
<path d="M135.546 45.4217V54.9699H133.373V47.1949H130.114L130.046 49.1728C129.978 50.5368 129.91 51.628 129.706 52.4464C129.502 53.2649 129.231 53.9469 128.823 54.3561C128.416 54.8335 127.873 55.0381 127.126 55.0381C126.854 55.0381 126.447 54.9699 126.039 54.9017L126.175 53.0603C126.311 53.1285 126.447 53.1285 126.582 53.1285C127.126 53.1285 127.465 52.7874 127.669 52.1736C127.873 51.5598 128.008 50.605 128.076 49.241L128.212 45.3535H135.546V45.4217Z" fill="white"/>
<path d="M143.356 52.9238C143.695 52.651 143.831 52.2418 143.831 51.6962C143.831 50.6732 143.22 50.1958 141.997 50.1958H140.028V53.3331H141.997C142.609 53.3331 143.084 53.1966 143.356 52.9238ZM145.121 49.3092C145.732 49.8548 146.072 50.605 146.072 51.628C146.072 52.7192 145.732 53.5377 145.053 54.0833C144.374 54.6289 143.424 54.9017 142.201 54.9017H137.855V45.3535H140.028V48.4908H142.473C143.627 48.559 144.51 48.8318 145.121 49.3092Z" fill="white"/>
<path d="M156.326 45.4219V54.97H154.085V51.0144H149.807V54.97H147.566V45.4219H149.807V49.1729H154.085V45.4219H156.326Z" fill="white"/>
<path d="M164.747 52.8555C165.222 52.5827 165.562 52.2417 165.833 51.7643C166.105 51.2869 166.241 50.7412 166.241 50.1956C166.241 49.65 166.105 49.1044 165.833 48.627C165.562 48.1496 165.222 47.8086 164.747 47.5358C164.272 47.263 163.796 47.1266 163.253 47.1266C162.71 47.1266 162.166 47.263 161.759 47.5358C161.284 47.8086 160.944 48.1496 160.672 48.627C160.401 49.1044 160.265 49.65 160.265 50.1956C160.265 50.7412 160.401 51.2869 160.672 51.7643C160.944 52.2417 161.284 52.5827 161.759 52.8555C162.234 53.1283 162.71 53.2647 163.253 53.2647C163.796 53.2647 164.272 53.1283 164.747 52.8555ZM160.537 54.4923C159.722 54.0831 159.11 53.4693 158.703 52.7191C158.228 51.9689 158.024 51.1505 158.024 50.1956C158.024 49.2408 158.228 48.4224 158.703 47.6722C159.178 46.922 159.79 46.3082 160.537 45.899C161.351 45.4898 162.234 45.2852 163.185 45.2852C164.136 45.2852 165.086 45.4898 165.833 45.899C166.648 46.3082 167.26 46.922 167.667 47.6722C168.142 48.4224 168.346 49.2408 168.346 50.1956C168.346 51.1505 168.142 51.9689 167.667 52.7191C167.192 53.4693 166.58 54.0831 165.833 54.4923C165.019 54.9015 164.136 55.1061 163.185 55.1061C162.234 55.1061 161.351 54.9015 160.537 54.4923Z" fill="white"/>
<path d="M171.877 42.6934H173.371C173.371 43.3754 173.779 43.7164 174.526 43.7164C174.865 43.7164 175.137 43.6482 175.341 43.4436C175.545 43.3072 175.612 43.0344 175.612 42.6934H177.106C177.106 43.3754 176.903 43.921 176.427 44.262C176.02 44.603 175.341 44.8076 174.458 44.8076C172.76 44.8076 171.877 44.1256 171.877 42.6934ZM170.112 45.4214H172.285V51.6277L176.835 45.4214H178.872V54.9696H176.699V48.7633L172.149 54.9696H170.044V45.4214H170.112Z" fill="white"/>
<path d="M16.5019 64.791V74.3392H14.3288V66.5642H9.98266V74.3392H7.80957V64.791H16.5019Z" fill="white"/>
<path d="M24.7855 72.2246C25.2608 71.9518 25.6004 71.6108 25.872 71.1334C26.1437 70.656 26.2795 70.1104 26.2795 69.5648C26.2795 69.0192 26.1437 68.4736 25.872 67.9961C25.6004 67.5187 25.2608 67.1777 24.7855 66.9049C24.3101 66.6321 23.8348 66.4957 23.2915 66.4957C22.7482 66.4957 22.2049 66.6321 21.7975 66.9049C21.3221 67.1777 20.9826 67.5187 20.7109 67.9961C20.4393 68.4736 20.3035 69.0192 20.3035 69.5648C20.3035 70.1104 20.4393 70.656 20.7109 71.1334C20.9826 71.6108 21.3221 71.9518 21.7975 72.2246C22.2729 72.4974 22.7482 72.6338 23.2915 72.6338C23.8348 72.6338 24.3101 72.4974 24.7855 72.2246ZM20.5751 73.8615C19.7602 73.4522 19.149 72.8384 18.7416 72.0882C18.2662 71.338 18.0625 70.5196 18.0625 69.5648C18.0625 68.61 18.2662 67.7915 18.7416 67.0413C19.217 66.2911 19.8281 65.6773 20.5751 65.2681C21.39 64.8589 22.2729 64.6543 23.2236 64.6543C24.2422 64.6543 25.125 64.8589 25.872 65.2681C26.6869 65.6773 27.2981 66.2911 27.7056 67.0413C28.1809 67.7915 28.3847 68.61 28.3847 69.5648C28.3847 70.5196 28.1809 71.338 27.7056 72.0882C27.2302 72.8384 26.619 73.4522 25.872 73.8615C25.0571 74.2707 24.1743 74.4753 23.2236 74.4753C22.2729 74.5435 21.39 74.2707 20.5751 73.8615Z" fill="white"/>
<path d="M32.6632 70.8611C32.5274 71.6113 32.3236 72.2251 31.9841 72.5661H36.2623V66.6326H33.0027L32.9348 67.9966C32.9348 69.156 32.799 70.1109 32.6632 70.8611ZM39.7936 72.5661V76.3172H37.7563V74.3393H31.0334V76.3172H28.9961V72.5661H29.4035C29.9468 72.5661 30.3543 72.1569 30.6259 71.3385C30.8296 70.5201 31.0334 69.3607 31.0334 67.8602L31.1692 64.8594H38.5033V72.6343H39.7936V72.5661Z" fill="white"/>
<path d="M47.8079 66.6324H43.3259V74.3392H41.1528V64.791H47.8758L47.8079 66.6324Z" fill="white"/>
<path d="M55.0741 72.2246C55.5494 71.9518 55.889 71.6108 56.1606 71.1334C56.4322 70.656 56.5681 70.1104 56.5681 69.5648C56.5681 69.0192 56.4322 68.4736 56.1606 67.9961C55.889 67.5187 55.5494 67.1777 55.0741 66.9049C54.5987 66.6321 54.1233 66.4957 53.5801 66.4957C53.0368 66.4957 52.4935 66.6321 52.0861 66.9049C51.6107 67.1777 51.2712 67.5187 50.9995 67.9961C50.7279 68.4736 50.5921 69.0192 50.5921 69.5648C50.5921 70.1104 50.7279 70.656 50.9995 71.1334C51.2712 71.6108 51.6107 71.9518 52.0861 72.2246C52.5614 72.4974 53.0368 72.6338 53.5801 72.6338C54.1233 72.6338 54.5987 72.4974 55.0741 72.2246ZM50.8637 73.8615C50.0488 73.4522 49.4376 72.8384 49.0302 72.0882C48.5548 71.338 48.3511 70.5196 48.3511 69.5648C48.3511 68.61 48.5548 67.7915 49.0302 67.0413C49.5055 66.2911 50.1167 65.6773 50.8637 65.2681C51.6786 64.8589 52.5614 64.6543 53.5122 64.6543C54.5308 64.6543 55.4136 64.8589 56.1606 65.2681C56.9755 65.6773 57.5867 66.2911 57.9941 67.0413C58.4695 67.7915 58.6732 68.61 58.6732 69.5648C58.6732 70.5196 58.4695 71.338 57.9941 72.0882C57.5188 72.8384 56.9076 73.4522 56.1606 73.8615C55.3457 74.2707 54.4629 74.4753 53.5122 74.4753C52.5614 74.5435 51.6786 74.2707 50.8637 73.8615Z" fill="white"/>
<path d="M67.5017 66.6324H64.5137V74.3392H62.3406V66.6324H59.2847V64.791H67.5017V66.6324Z" fill="white"/>
<path d="M74.7679 72.2246C75.2432 71.9518 75.5828 71.6108 75.8544 71.1334C76.126 70.656 76.2619 70.1104 76.2619 69.5648C76.2619 69.0192 76.126 68.4736 75.8544 67.9961C75.5828 67.5187 75.2432 67.1777 74.7679 66.9049C74.2925 66.6321 73.8171 66.4957 73.2739 66.4957C72.7306 66.4957 72.1873 66.6321 71.7799 66.9049C71.3045 67.1777 70.965 67.5187 70.6933 67.9961C70.4217 68.4736 70.2859 69.0192 70.2859 69.5648C70.2859 70.1104 70.4217 70.656 70.6933 71.1334C70.965 71.6108 71.3045 71.9518 71.7799 72.2246C72.2552 72.4974 72.7306 72.6338 73.2739 72.6338C73.8171 72.6338 74.3604 72.4974 74.7679 72.2246ZM70.6254 73.8615C69.8105 73.4522 69.1993 72.8384 68.7919 72.0882C68.3165 71.338 68.1128 70.5196 68.1128 69.5648C68.1128 68.61 68.3165 67.7915 68.7919 67.0413C69.2672 66.2911 69.8784 65.6773 70.6254 65.2681C71.4403 64.8589 72.3231 64.6543 73.2739 64.6543C74.2925 64.6543 75.1753 64.8589 75.9223 65.2681C76.7372 65.6773 77.3484 66.2911 77.7559 67.0413C78.2312 67.7915 78.4349 68.61 78.4349 69.5648C78.4349 70.5196 78.2312 71.338 77.7559 72.0882C77.2805 72.8384 76.6693 73.4522 75.9223 73.8615C75.1074 74.2707 74.2246 74.4753 73.2739 74.4753C72.2552 74.5435 71.3724 74.2707 70.6254 73.8615Z" fill="white"/>
<path d="M86.1782 71.4747C86.1782 70.6563 85.6349 70.3153 84.6163 70.3153H82.1716V72.7024H84.6163C85.7029 72.7024 86.1782 72.2932 86.1782 71.4747ZM82.2395 68.7467H84.2768C84.7521 68.7467 85.0917 68.6785 85.3633 68.4739C85.6349 68.2693 85.7029 67.9965 85.7029 67.5873C85.7029 67.2463 85.567 66.9053 85.2954 66.7007C85.0238 66.496 84.6842 66.4278 84.2089 66.4278H82.1716V68.7467H82.2395ZM87.9439 70.2471C88.2834 70.6563 88.4192 71.1337 88.4192 71.6793C88.4192 72.4978 88.0797 73.1798 87.4685 73.6572C86.8573 74.1346 85.9066 74.3392 84.7521 74.3392H80.0664V64.791H84.4805C85.567 64.791 86.4499 64.9956 87.061 65.4048C87.6722 65.814 88.0118 66.4278 88.0118 67.2463C88.0118 67.7237 87.876 68.1329 87.6722 68.4739C87.4685 68.8149 87.1289 69.0877 86.6536 69.2923C87.1969 69.5651 87.6722 69.8379 87.9439 70.2471Z" fill="white"/>
<path d="M93.7144 70.5199H92.2204V74.3392H90.0474V64.791H92.2204V68.6785H93.7823L96.295 64.791H98.6039L95.4801 69.4287L98.6718 74.3392H96.2271L93.7144 70.5199Z" fill="white"/>
<path d="M99.9619 64.791H102.135V70.9973L106.685 64.791H108.722V74.3392H106.549V68.1329L101.999 74.3392H99.9619V64.791Z" fill="white"/>
<path d="M56.567 13.7769V17.5962H54.5977V15.5501H46.6523V6.00195H48.8254V13.7769H53.0358V6.00195H55.2089V13.7769H56.567Z" fill="white"/>
<path d="M65.1911 13.7769V15.5501H57.7891V6.00195H64.9874V7.77518H60.0301V9.82122H64.4441V11.5945H60.0301V13.7769H65.1911Z" fill="white"/>
<path d="M75.4467 6.00195V15.5501H73.2737V11.6627H68.9275V15.5501H66.7544V6.00195H68.9275V9.75302H73.2737V6.00195H75.4467Z" fill="white"/>
<path d="M84.818 7.77518H81.8301V15.5501H79.657V7.77518H76.6011V6.00195H84.818V7.77518Z" fill="white"/>
<path d="M91.4718 10.7078C91.8113 10.435 92.0151 10.0258 92.0151 9.48017C92.0151 8.93456 91.8113 8.52536 91.4718 8.25255C91.1322 7.97975 90.6569 7.84335 89.9778 7.84335H88.2121V11.1852H89.9778C90.6569 11.117 91.1322 10.9806 91.4718 10.7078ZM92.2867 6.41112C92.8979 6.68393 93.3732 7.09313 93.7128 7.63874C94.0523 8.18435 94.1881 8.79816 94.1881 9.48017C94.1881 10.1622 94.0523 10.776 93.7128 11.3216C93.3732 11.8672 92.8979 12.2764 92.2867 12.5492C91.6755 12.822 90.9285 12.9584 90.1136 12.9584H88.2121V15.6183H86.0391V6.07011H90.1815C90.9285 6.00191 91.6755 6.13832 92.2867 6.41112Z" fill="white"/>
<path d="M20.4405 13.7764H28.25V5.93323H20.4405V13.7764ZM30.0836 15.686H18.5391V4.0918H30.0836V15.686Z" fill="white"/>
<path d="M17.4544 14.5266V13.7764H15.3492V4.0918H13.4478V6.34244V13.7764H11.4105H5.70614V5.93323V4.0918H3.80469V15.686H11.4105H15.3492H15.5529V17.2546H17.4544V14.5266Z" fill="white"/>
<path d="M3.80469 30.0087H5.70614V28.3719V20.5288H13.4478V27.7581V30.0087H15.3492V18.6191H3.80469V30.0087Z" fill="white"/>
<path d="M30.0836 18.6191H18.5391V30.0087H20.3726V27.7581H20.4405V20.5288H28.1821V27.7581V30.0087H30.0836V18.6191Z" fill="white"/>
<path d="M5.057 99.156C3.73967 99.156 2.639 98.74 1.755 97.908C0.879667 97.0673 0.442 95.9883 0.442 94.671C0.442 93.3537 0.879667 92.279 1.755 91.447C2.639 90.6063 3.73967 90.186 5.057 90.186C6.67767 90.186 7.88667 90.8923 8.684 92.305L7.098 93.085C6.90733 92.721 6.62567 92.422 6.253 92.188C5.889 91.9453 5.49033 91.824 5.057 91.824C4.26833 91.824 3.61833 92.0927 3.107 92.63C2.59567 93.1673 2.34 93.8477 2.34 94.671C2.34 95.4943 2.59567 96.1747 3.107 96.712C3.61833 97.2493 4.26833 97.518 5.057 97.518C5.49033 97.518 5.889 97.401 6.253 97.167C6.62567 96.933 6.90733 96.6297 7.098 96.257L8.684 97.024C7.86067 98.4453 6.65167 99.156 5.057 99.156ZM18.0399 99H15.9339L15.4009 97.531H11.6829L11.1369 99H9.03094L12.3849 90.329H14.6989L18.0399 99ZM14.8939 95.906L13.5419 92.175L12.1899 95.906H14.8939ZM28.4997 99H26.6407V92.929L24.1967 99H23.3907L20.9467 92.929V99H19.1007V90.329H21.6877L23.7937 95.568L25.8997 90.329H28.4997V99ZM38.5678 99H36.4618L35.9288 97.531H32.2108L31.6648 99H29.5588L32.9128 90.329H35.2268L38.5678 99ZM35.4218 95.906L34.0698 92.175L32.7178 95.906H35.4218ZM41.4745 99H39.6285V90.329H43.6845C44.5945 90.329 45.3051 90.5977 45.8165 91.135C46.3365 91.6637 46.5965 92.3267 46.5965 93.124C46.5965 93.9127 46.3365 94.5757 45.8165 95.113C45.2965 95.6503 44.5858 95.919 43.6845 95.919H41.4745V99ZM43.4375 94.294C43.8101 94.294 44.1135 94.19 44.3475 93.982C44.5901 93.7653 44.7115 93.4793 44.7115 93.124C44.7115 92.7687 44.5901 92.487 44.3475 92.279C44.1135 92.0623 43.8101 91.954 43.4375 91.954H41.4745V94.294H43.4375ZM52.1998 99.156C50.8824 99.156 49.7818 98.74 48.8978 97.908C48.0224 97.0673 47.5848 95.9883 47.5848 94.671C47.5848 93.3537 48.0224 92.279 48.8978 91.447C49.7818 90.6063 50.8824 90.186 52.1998 90.186C53.8204 90.186 55.0294 90.8923 55.8268 92.305L54.2408 93.085C54.0501 92.721 53.7684 92.422 53.3958 92.188C53.0318 91.9453 52.6331 91.824 52.1998 91.824C51.4111 91.824 50.7611 92.0927 50.2498 92.63C49.7384 93.1673 49.4828 93.8477 49.4828 94.671C49.4828 95.4943 49.7384 96.1747 50.2498 96.712C50.7611 97.2493 51.4111 97.518 52.1998 97.518C52.6331 97.518 53.0318 97.401 53.3958 97.167C53.7684 96.933 54.0501 96.6297 54.2408 96.257L55.8268 97.024C55.0034 98.4453 53.7944 99.156 52.1998 99.156ZM64.6086 99H62.3336L59.7076 95.529L59.0316 96.335V99H57.1856V90.329H59.0316V94.203L62.0996 90.329H64.3746L60.9296 94.398L64.6086 99ZM69.2089 99.156C67.9002 99.156 66.8169 98.7357 65.9589 97.895C65.1095 97.0457 64.6849 95.971 64.6849 94.671C64.6849 93.371 65.1095 92.3007 65.9589 91.46C66.8169 90.6107 67.9002 90.186 69.2089 90.186C70.5262 90.186 71.6095 90.6063 72.4589 91.447C73.3169 92.2877 73.7459 93.3623 73.7459 94.671C73.7459 95.9797 73.3169 97.0543 72.4589 97.895C71.6095 98.7357 70.5262 99.156 69.2089 99.156ZM67.2979 96.712C67.7832 97.2493 68.4202 97.518 69.2089 97.518C69.9975 97.518 70.6345 97.2493 71.1199 96.712C71.6052 96.1747 71.8479 95.4943 71.8479 94.671C71.8479 93.8477 71.6052 93.1673 71.1199 92.63C70.6345 92.0927 69.9975 91.824 69.2089 91.824C68.4202 91.824 67.7832 92.0927 67.2979 92.63C66.8212 93.1673 66.5829 93.8477 66.5829 94.671C66.5829 95.4943 66.8212 96.1747 67.2979 96.712ZM77.0823 99H75.3013V90.329H77.1473V95.932L81.1643 90.329H83.0623V99H81.2163V93.189L77.0823 99ZM81.4633 88.782C80.9 89.5447 80.1416 89.926 79.1883 89.926C78.2436 89.926 77.4809 89.5447 76.9003 88.782L77.6283 88.171C78.0096 88.7083 78.5296 88.977 79.1883 88.977C79.8296 88.977 80.3453 88.7083 80.7353 88.171L81.4633 88.782ZM92.7262 99.156C91.4175 99.156 90.3342 98.7357 89.4762 97.895C88.6268 97.0457 88.2022 95.971 88.2022 94.671C88.2022 93.371 88.6268 92.3007 89.4762 91.46C90.3342 90.6107 91.4175 90.186 92.7262 90.186C94.0435 90.186 95.1268 90.6063 95.9762 91.447C96.8342 92.2877 97.2632 93.3623 97.2632 94.671C97.2632 95.9797 96.8342 97.0543 95.9762 97.895C95.1268 98.7357 94.0435 99.156 92.7262 99.156ZM90.8152 96.712C91.3005 97.2493 91.9375 97.518 92.7262 97.518C93.5148 97.518 94.1518 97.2493 94.6372 96.712C95.1225 96.1747 95.3652 95.4943 95.3652 94.671C95.3652 93.8477 95.1225 93.1673 94.6372 92.63C94.1518 92.0927 93.5148 91.824 92.7262 91.824C91.9375 91.824 91.3005 92.0927 90.8152 92.63C90.3385 93.1673 90.1002 93.8477 90.1002 94.671C90.1002 95.4943 90.3385 96.1747 90.8152 96.712ZM98.8186 90.329H105.15V91.954H100.665V93.488H102.914C103.806 93.488 104.508 93.7523 105.02 94.281C105.531 94.8097 105.787 95.464 105.787 96.244C105.787 97.024 105.531 97.6783 105.02 98.207C104.508 98.7357 103.806 99 102.914 99H98.8186V90.329ZM102.667 95.113H100.665V97.375H102.667C103.031 97.375 103.325 97.271 103.551 97.063C103.785 96.855 103.902 96.582 103.902 96.244C103.902 95.8973 103.785 95.6243 103.551 95.425C103.325 95.217 103.031 95.113 102.667 95.113ZM106.671 99.156V97.518C107.139 97.518 107.499 97.3317 107.75 96.959C108.001 96.5777 108.192 95.8453 108.322 94.762L108.829 90.329H114.991V99H113.132V91.954H110.493L110.155 94.892C110.051 95.7673 109.895 96.4953 109.687 97.076C109.488 97.648 109.228 98.0813 108.907 98.376C108.595 98.6707 108.266 98.8743 107.919 98.987C107.572 99.0997 107.156 99.156 106.671 99.156ZM125.046 99H122.94L122.407 97.531H118.689L118.143 99H116.037L119.391 90.329H121.705L125.046 99ZM121.9 95.906L120.548 92.175L119.196 95.906H121.9ZM129.861 99.156C128.544 99.156 127.443 98.74 126.559 97.908C125.684 97.0673 125.246 95.9883 125.246 94.671C125.246 93.3537 125.684 92.279 126.559 91.447C127.443 90.6063 128.544 90.186 129.861 90.186C131.482 90.186 132.691 90.8923 133.488 92.305L131.902 93.085C131.711 92.721 131.43 92.422 131.057 92.188C130.693 91.9453 130.294 91.824 129.861 91.824C129.072 91.824 128.422 92.0927 127.911 92.63C127.4 93.1673 127.144 93.8477 127.144 94.671C127.144 95.4943 127.4 96.1747 127.911 96.712C128.422 97.2493 129.072 97.518 129.861 97.518C130.294 97.518 130.693 97.401 131.057 97.167C131.43 96.933 131.711 96.6297 131.902 96.257L133.488 97.024C132.665 98.4453 131.456 99.156 129.861 99.156ZM138.708 99H136.849V91.954H134.314V90.329H141.23V91.954H138.708V99ZM144.454 99H142.673V90.329H144.519V95.932L148.536 90.329H150.434V99H148.588V93.189L144.454 99Z" fill="white"/>
</g>
<defs>
<clipPath id="clip0">
<rect width="187" height="100" fill="white"/>
</clipPath>
</defs>
</svg>
